<svg width="16" height="18" viewBox="0 0 16 18" fill="none" xmlns="http://www.w3.org/2000/svg">
<path d="M15.5 12.7493C15.5 13.066 15.325 13.341 15.0583 13.4827L8.475 17.1827C8.34167 17.2827 8.175 17.3327 8 17.3327C7.825 17.3327 7.65833 17.2827 7.525 17.1827L0.941667 13.4827C0.675 13.341 0.5 13.066 0.5 12.7493V5.24935C0.5 4.93268 0.675 4.65768 0.941667 4.51602L7.525 0.816016C7.65833 0.716016 7.825 0.666016 8 0.666016C8.175 0.666016 8.34167 0.716016 8.475 0.816016L15.0583 4.51602C15.325 4.65768 15.5 4.93268 15.5 5.24935V12.7493ZM8 2.45768L3.03333 5.24935L8 8.04102L12.9667 5.24935L8 2.45768ZM2.16667 12.2577L7.16667 15.0744V9.48268L2.16667 6.67435V12.2577ZM13.8333 12.2577V6.67435L8.83333 9.48268V15.0744L13.8333 12.2577Z" fill="#FEFEFE"/>
</svg>
