<svg width="12" height="18" viewBox="0 0 12 18" fill="none" xmlns="http://www.w3.org/2000/svg">
<path d="M6.00002 4.41602C6.55256 4.41602 7.08246 4.63551 7.47316 5.02621C7.86386 5.41691 8.08335 5.94681 8.08335 6.49935C8.08335 6.77294 8.02947 7.04384 7.92477 7.29661C7.82007 7.54937 7.66662 7.77903 7.47316 7.97249C7.2797 8.16594 7.05004 8.3194 6.79728 8.4241C6.54452 8.5288 6.27361 8.58268 6.00002 8.58268C5.44749 8.58268 4.91758 8.36319 4.52688 7.97249C4.13618 7.58179 3.91669 7.05188 3.91669 6.49935C3.91669 5.94681 4.13618 5.41691 4.52688 5.02621C4.91758 4.63551 5.44749 4.41602 6.00002 4.41602ZM6.00002 0.666016C7.54712 0.666016 9.03085 1.2806 10.1248 2.37456C11.2188 3.46852 11.8334 4.95225 11.8334 6.49935C11.8334 10.8743 6.00002 17.3327 6.00002 17.3327C6.00002 17.3327 0.166687 10.8743 0.166687 6.49935C0.166687 4.95225 0.781269 3.46852 1.87523 2.37456C2.96919 1.2806 4.45292 0.666016 6.00002 0.666016ZM6.00002 2.33268C4.89495 2.33268 3.83514 2.77167 3.05374 3.55307C2.27234 4.33447 1.83335 5.39428 1.83335 6.49935C1.83335 7.33268 1.83335 8.99935 6.00002 14.591C10.1667 8.99935 10.1667 7.33268 10.1667 6.49935C10.1667 5.39428 9.7277 4.33447 8.9463 3.55307C8.1649 2.77167 7.10509 2.33268 6.00002 2.33268Z" fill="#FEFEFE"/>
</svg>
