<svg width="405" height="488" viewBox="0 0 405 488" fill="none" xmlns="http://www.w3.org/2000/svg">
<path d="M271.093 45.6557C53.9857 40.7402 -147.385 412.805 149.223 464.522C351.558 501.548 426.417 514.6 399.621 344.46C389.31 258.341 360.239 289.627 386.017 168.101C393.382 115.807 343.77 60.8973 310.39 51.5261C310.39 51.5261 293.543 45.6826 271.093 45.6557Z" fill="#FFC200"/>
<path d="M151.423 79.459C124.745 95.1801 100.125 115.527 78.8296 138.682C92.5706 206.545 119.048 302.232 123.214 305.92C130.325 312.214 258.919 252.855 258.919 252.855L151.423 79.459Z" fill="#FFE8A3"/>
<path d="M108.813 266.671C121.144 266.671 131.14 260.899 131.14 253.778C131.14 246.657 121.144 240.885 108.813 240.885C96.4819 240.885 86.4856 246.657 86.4856 253.778C86.4856 260.899 96.4819 266.671 108.813 266.671Z" fill="#FFC107"/>
<path d="M105.197 252.836L95.3547 264.046C99.2261 265.745 103.952 266.667 108.813 266.673C114.702 266.671 120.352 265.326 124.532 262.931C128.712 260.535 131.084 257.283 131.131 253.882C125.811 253.454 113.373 252.836 113.373 252.836H105.197Z" fill="#FFD34E"/>
<path d="M105.747 241.02C101.416 241.368 97.3587 242.444 94.0771 244.113L105.197 252.834L105.747 241.02Z" fill="#EEA320"/>
<path d="M285.85 340.208C285.85 340.208 253.923 358.577 259.171 376.508C263.982 396.189 285.413 415.433 312.966 405.811C339.645 396.627 350.579 364.262 351.017 344.581C349.267 330.586 311.217 330.148 285.85 340.208Z" fill="#FFC107"/>
<path d="M286.929 275.396C279.32 275.396 271.474 276.651 264.968 277.99C250.098 281.052 191.947 290.611 191.947 290.611C191.947 290.611 106.591 301.127 94.8396 308.549C83.0877 315.971 53.2687 314.007 63.7654 336.75C72.0157 348.966 84.9945 330.69 86.9626 339C88.9307 347.31 95.2735 430.191 96.1482 441.125C96.4237 444.569 97.2644 448.099 99.0368 451.129C106.51 453.957 114.449 456.509 122.877 458.76C124.385 458.501 125.963 458.172 127.636 457.746C151.691 451.623 200.239 425.379 202.426 383.393C206.362 358.026 254.035 353.653 265.843 348.842C277.652 344.031 321.825 295.922 311.765 284.113C306.107 277.471 296.713 275.397 286.929 275.396ZM79.0466 325.168C79.7693 327.336 86.8296 327.502 88.1638 328.113C89.498 328.725 91.7787 329.449 92.279 330.061C92.7794 330.672 91.5006 331.005 89.8884 330.838C88.2762 330.671 77.7688 332.061 76.7126 329.504C75.3228 326.28 79.0466 325.168 79.0466 325.168Z" fill="#FFC107"/>
<path d="M23.3961 220.475C22.4225 222.546 21.4843 224.621 20.566 226.701L378.589 267.014C378.589 267.012 378.588 267.01 378.587 267.008C378.312 265.96 378.057 264.886 377.814 263.795C377.81 263.775 377.805 263.756 377.8 263.736C377.559 262.645 377.338 261.522 377.132 260.375C377.13 260.362 377.126 260.35 377.124 260.338L23.3961 220.475Z" fill="#FFC107"/>
<path d="M116.157 282.254C116.157 282.254 124.904 304.996 124.466 306.09C124.03 307.183 120.639 315.712 113.751 292.532C110.252 282.472 112.22 281.707 116.157 282.254Z" fill="#D2D5D8"/>
<path d="M75.3563 310.557C75.3563 310.557 50.7702 314.422 65.7693 334.37C73.81 342.101 83.5516 325.246 93.1386 337.771C97.159 343.802 97.623 337.307 96.3859 334.833C95.1489 332.359 90.3554 325.556 75.3563 331.277C71.6452 332.514 66.697 322.154 80.6138 318.597C90.8193 315.196 75.3563 310.557 75.3563 310.557Z" fill="#D2D5D8"/>
<path d="M79.0698 311.939C74.212 314.838 63.1966 322.567 69.7969 330.036C71.8744 332.004 73.7334 332.549 78.763 330.254C78.9122 330.186 79.0468 330.11 79.1932 330.041C77.9867 330.368 76.7285 330.755 75.3564 331.278C71.6452 332.515 66.6972 322.155 80.6138 318.599C87.3818 316.343 82.8831 313.57 79.0698 311.939ZM86.306 331.505C82.6876 331.454 79.09 333.207 76.3565 334.027C70.8895 335.667 65.2039 333.206 65.2039 333.206C65.1249 333.232 65.0765 333.264 65.0032 333.29C65.2541 333.648 65.4914 334.001 65.769 334.37C73.8097 342.101 83.5514 325.247 93.1385 337.772C94.7849 340.241 95.8264 340.595 96.4075 340C96.3961 339.925 96.3961 339.858 96.3885 339.782C93.5666 333.403 89.9244 331.554 86.306 331.505Z" fill="#BFC4C8"/>
<path d="M117.725 292.08L116.104 299.626C117.457 303.219 118.63 305.425 119.646 306.758C121.279 306.418 123.214 305.919 123.214 305.919L117.725 292.08Z" fill="#BFC4C8"/>
<path d="M93.448 276.075C93.448 276.075 83.5516 288.6 82.3146 295.867C81.0776 303.135 65.7693 307.001 77.3665 320.453C86.7988 330.659 102.107 323.237 101.179 318.907C101.798 316.433 131.487 303.753 112.777 277.003C98.86 266.642 93.448 276.075 93.448 276.075Z" fill="#D2D5D8"/>
<path d="M100.544 272.156C95.5607 272.39 93.4479 276.075 93.4479 276.075C93.4479 276.075 91.1994 278.939 88.7196 282.691C90.202 285.803 94.2484 292.48 101.781 292.517C103.59 297.422 107.624 308.88 105.973 309.553C103.885 310.403 100.793 310.944 100.02 311.331C99.2465 311.717 83.7062 311.021 83.7062 311.021C83.7062 311.021 81.5415 310.171 81.2322 312.027C81.0092 313.363 81.5213 320.652 84.1846 324.842C92.7307 327.552 101.904 322.288 101.179 318.908C101.71 316.786 123.597 307.148 118.022 287.573C118.465 291.595 117.848 297.418 117.802 298.342C117.726 299.888 116.41 300.739 116.565 300.043C116.72 299.347 114.478 292.93 111.926 290.224C109.375 287.518 111.617 286.667 113.009 286.358C114.4 286.049 115.174 283.961 115.174 283.961C115.802 283.608 116.303 283.627 116.705 283.906C115.748 281.716 114.466 279.419 112.777 277.003C107.558 273.118 103.534 272.016 100.544 272.156Z" fill="#BFC4C8"/>
<path d="M108.776 288.322C108.776 288.322 119.437 311.776 117.469 317.024C116.485 318.008 110.034 317.571 108.831 309.042C107.628 300.514 97.6236 288.76 108.776 288.322Z" fill="#D2D5D8"/>
<path d="M89.8915 304.062C89.8915 304.062 104.891 308.547 101.643 319.062C101.489 326.329 113.55 327.875 109.993 329.731C106.437 331.587 90.51 328.803 87.8813 324.937C85.2526 321.072 77.6758 308.547 89.8915 304.062Z" fill="#D2D5D8"/>
<path d="M87.0309 312.335C87.0309 312.335 82.7013 318.829 88.1907 322.772C92.9068 326.406 96.5407 327.952 96.9272 325.324C97.3138 322.695 94.0666 321.999 94.917 319.061C95.7675 316.123 95.1491 307 87.0309 312.335Z" fill="#E3E5E7"/>
<path d="M93.086 327.412C93.086 327.412 54.636 364.524 75.6656 396.996C82.4693 419.572 89.273 444.004 102.262 444.622C115.251 445.241 173.082 442.767 186.69 392.976C181.432 375.039 170.299 322.774 132.569 319.991C124.219 319.372 108.032 316.588 93.086 327.412Z" fill="#2D9D91"/>
<path d="M120.349 319.211C112.254 319.196 102.427 320.646 93.0855 327.411C93.0855 327.411 54.6359 364.522 75.6656 396.995C75.7707 397.342 75.8772 397.693 75.9823 398.041C80.4026 404.75 104.068 435.4 149.944 402.856C161.328 395.15 172.561 374.399 174.228 355.769C166.124 338.162 153.409 321.526 132.569 319.989C129.438 319.757 125.205 319.22 120.349 319.211Z" fill="#35B9AB"/>
<path d="M156.935 330.697C154.704 331.978 130.693 345.784 128.293 348.185C126.315 350.162 121.38 356.697 118.95 359.937C113.247 360.805 95.9294 365.134 95.9294 365.134C95.9294 365.134 91.0086 367.429 93.8515 371.802C95.0282 374.156 104.174 371.951 111.593 369.268L105.441 376.941C105.441 376.941 94.6164 382.955 99.5366 387.765C103.691 391.92 109.378 391.046 115.719 386.891C122.061 382.736 134.088 381.753 135.947 377.27C137.806 372.787 142.618 364.369 141.306 362.51C140.079 360.772 161.783 343.553 164.077 338.55C161.9 335.705 159.539 333.046 156.935 330.697Z" fill="#2D9D91"/>
<path d="M227.574 124.915C227.574 124.915 254.108 105.983 276.684 136.29C287.508 154.536 334.07 301.607 222.981 352.778C205.924 356.715 177.496 358.901 173.997 333.972C170.498 309.48 156.94 283.676 163.938 272.304C170.936 260.933 190.18 264.869 201.113 233.817C212.047 202.764 210.298 128.413 227.574 124.915Z" fill="#F162FF"/>
<path d="M292.712 192.025C292.112 229.565 285.855 257.615 276.978 278.624C265.29 303.563 246.799 316.788 236.306 319.994C223.742 323.729 221.704 295.545 221.704 295.545C221.704 295.545 208.577 294.876 193.719 296.545C194.296 295.946 194.73 295.558 194.73 295.558C195.625 289.03 179.917 277.076 167.224 268.557C165.955 269.624 164.842 270.832 163.937 272.303C156.939 283.674 170.498 309.48 173.997 333.972C177.496 358.901 205.923 356.715 222.981 352.779C295.71 319.277 300.861 244.675 292.712 192.025Z" fill="#E90EFF"/>
<path d="M231.665 122.629C229.098 123.846 227.575 124.915 227.575 124.915C224.955 125.445 222.778 127.624 220.923 131.015C216.2 150.387 214.729 191.459 212.368 219.403C201.734 240.197 184.546 264.982 175.049 278.914C170.911 282.26 167.522 284.799 165.969 285.662C164.594 286.426 163.619 287.834 162.971 289.513C163.658 293.038 164.664 296.88 165.783 300.873C167.758 299.278 171.731 296.592 176.436 296.111C186.289 300.332 203.85 303.675 223.491 297.723C281.845 281.497 266.298 226.422 264.531 167.339C259.582 144.325 248.334 139.097 239.498 138.892C237.767 132.06 235.283 126.041 231.665 122.629Z" fill="#E90EFF"/>
<path d="M231.666 122.629C229.099 123.846 227.575 124.916 227.575 124.916C224.955 125.446 222.78 127.624 220.924 131.015C213.869 159.952 214.079 237.465 207.718 247.005C199.677 259.066 171.536 282.571 165.969 285.664C164.594 286.428 163.619 287.834 162.971 289.513C163.48 292.124 164.196 294.946 164.972 297.838C164.96 297.851 164.953 297.854 164.941 297.865C165.163 298.691 165.43 299.586 165.666 300.43C165.708 300.582 165.742 300.724 165.785 300.876H165.789C168.678 311.182 172.384 322.685 173.997 333.976C176.365 350.843 190.144 355.281 204.092 355.178C203.561 347.679 201.44 327.999 198.953 314.735C197.432 306.62 198.73 300.275 200.418 295.947C198.244 296.104 196.018 296.291 193.719 296.549C194.296 295.95 194.73 295.562 194.73 295.562C194.773 295.263 194.768 294.95 194.741 294.628C211.318 292.51 234.286 287.025 242.515 272.214C245.607 263.091 243.751 253.502 242.823 246.234C241.895 238.966 240.042 234.174 241.279 230.462C242.516 226.751 249.936 213.453 248.699 204.639C247.462 195.825 244.989 182.527 244.061 176.651C243.21 171.256 243.261 133.562 231.67 122.632L231.666 122.629Z" fill="#B600C9"/>
<path d="M111.385 348.52C111.385 348.52 87.4946 358.57 96.2312 366.766C102.107 372.41 105.818 364.446 115.173 364.756C124.528 365.065 127.466 352.308 123.214 350.839C118.962 349.37 111.385 348.52 111.385 348.52Z" fill="#85D52D"/>
<path d="M124.888 356.496C122.498 358.714 119.241 360.891 116.101 360.649C110.415 360.212 104.402 365.954 98.7704 364.861C95.2694 364.217 94.5339 362.531 94.7212 360.927C93.9499 362.874 94.2104 364.869 96.2312 366.765C102.107 372.409 105.818 364.445 115.173 364.754C120.771 364.94 124.052 360.45 124.888 356.496Z" fill="#73BA25"/>
<path d="M109.621 346.725L109.762 350.375C109.762 350.375 113.432 352.936 117.305 351.156C117.425 350.213 117.589 349.188 117.812 348.066C114.251 348.927 111.756 347.825 109.621 346.725Z" fill="#FFC098"/>
<path d="M128.549 356.328C128.549 356.328 90.5099 372.873 102.262 383.698C110.148 391.893 117.106 379.523 125.147 377.822C133.188 376.121 144.476 365.606 128.549 356.328Z" fill="#85D52D"/>
<path d="M128.549 356.328C128.549 356.328 127.735 356.694 126.527 357.261C126.195 357.753 126.22 358.221 126.848 358.57C129.631 360.117 132.801 370.631 127.621 371.173C110.148 373.956 113.704 377.59 108.215 380.682C104.098 383.002 101.415 379.189 100.331 377.138C99.606 379.428 100.053 381.664 102.262 383.698C110.148 391.893 117.106 379.523 125.147 377.822C133.188 376.121 144.476 365.606 128.549 356.328Z" fill="#73BA25"/>
<path d="M119.6 357.525L119.657 363.44C119.657 363.44 124.219 367.538 130.172 363.672C130.172 363.004 130.257 362.003 130.349 361.048C126.231 362.533 123.594 359.465 119.6 357.525Z" fill="#FFC098"/>
<path d="M191.71 243.658C191.71 243.658 136.603 262.902 133.76 266.838C130.918 270.774 101.396 344.469 105.77 345.125C110.143 345.781 114.079 352.779 125.451 344.032C136.822 335.285 142.945 296.36 161.751 287.175C180.558 277.991 197.177 277.335 203.082 267.276C208.986 257.216 215.109 246.501 212.922 245.189C210.736 243.877 191.71 243.658 191.71 243.658Z" fill="#1C91C5"/>
<path d="M191.71 243.658C191.71 243.658 168.932 251.616 151.905 258.346C150.686 261.305 149.393 263.486 147.723 264.014C145.657 264.666 143.515 263.668 141.39 262.699C137.262 264.525 134.35 266.022 133.76 266.838C133.578 267.091 133.279 267.646 132.893 268.435C135.137 268.799 141.524 269.813 148.682 270.931C144.775 273.128 138.777 277.037 135.947 281.707C132.306 287.715 119.395 332.769 114.978 348.369C117.635 348.467 120.958 347.486 125.451 344.03C136.823 335.283 142.944 296.359 161.751 287.174C164.266 285.946 166.739 284.877 169.156 283.91C168.61 281.208 161.609 275.697 156.815 272.19C169.198 274.073 181.664 275.843 182.669 275.456C183.776 275.031 195.882 267.294 207.214 260.117C211.422 252.651 214.587 246.187 212.921 245.188C210.734 243.876 191.71 243.658 191.71 243.658Z" fill="#2F81A2"/>
<path d="M192.148 253.499C192.148 253.499 151.692 270.118 145.132 278.209C138.571 286.3 111.236 354.31 118.234 356.934C125.232 359.558 127.856 366.774 138.134 354.528C148.412 342.282 159.127 295.922 170.717 292.861C182.307 289.799 235.919 288.845 235.919 260.635C236.511 245.768 237.21 232.549 226.59 230.646C213.032 235.239 213.36 222.227 192.148 253.499Z" fill="#1C91C5"/>
<path d="M200.065 243.885C196.305 245.973 171.884 259.65 170.062 264.103C168.094 268.914 175.31 268.259 182.635 264.76C189.961 261.261 192.804 256.012 196.741 253.279C199.379 251.446 209.223 246.916 209.642 244.52C207.006 244.208 203.483 244.013 200.065 243.885Z" fill="#276B86"/>
<path d="M226.589 230.645C213.031 235.237 213.359 222.225 192.148 253.496C192.148 253.496 167.879 263.479 153.894 271.74C167.334 273.802 181.61 275.863 182.669 275.456C184.679 274.683 223.646 249.323 226.584 248.241C229.522 247.158 230.914 267.879 212.822 275.146C193.493 281.95 167.979 281.641 154.681 301.279C149.034 309.877 131.367 346.822 124.91 360.56C128.286 362.231 131.719 362.17 138.133 354.527C148.411 342.281 159.127 295.92 170.717 292.859C182.307 289.797 235.92 288.843 235.92 260.633C236.512 245.766 237.209 232.547 226.589 230.645Z" fill="#2F81A2"/>
<path d="M193.863 170.012C188.093 172.998 180.562 179.982 178.185 196.441C176.329 208.966 176.639 207.729 176.639 207.729C176.639 207.729 179.424 208.746 182.643 209.343C175.407 196.871 187.342 178.516 193.863 170.012Z" fill="#E15361"/>
<path d="M179.11 208.494C178.456 213.43 174.57 240.095 166.235 244.859C167.363 250.804 184.825 240.799 187.905 220.425C187.905 220.425 187.905 220.424 187.905 220.425C187.143 217.253 185.946 214.158 184.063 211.439C183.516 210.765 183.061 210.059 182.645 209.342C181.319 209.096 180.125 208.782 179.11 208.494Z" fill="#FFC098"/>
<path d="M184.798 212.58C184.786 218.837 183.48 229.121 176.402 238.628C175.977 240.341 176.036 241.565 176.44 242.416C181.302 238.097 186.38 230.545 187.909 220.425C187.252 217.688 186.268 215.01 184.802 212.58H184.798Z" fill="#FE9551"/>
<path d="M179.11 208.496C178.455 213.436 174.571 240.097 166.236 244.859C166.281 245.097 166.362 245.299 166.457 245.486C182.895 232.465 181.215 211.253 180.984 208.985C180.313 208.825 179.677 208.657 179.11 208.496Z" fill="#FFD6BB"/>
<path d="M197.668 165.36C197.668 165.36 170.763 195.049 184.061 211.44C191.019 221.491 188.855 236.645 188.391 242.057C187.927 247.469 218.08 250.561 232.46 239.273C238.027 233.397 234.779 219.635 235.862 212.058C236.944 204.482 231.377 176.803 229.986 174.02C228.594 171.236 234.47 152.681 197.668 165.36Z" fill="#D2D5D8"/>
<path d="M203.51 214.502C202.179 214.475 200.836 214.72 199.446 215.384C193.68 218.304 189.45 217.7 186.607 216.307C187.463 218.472 188.046 220.734 188.424 223.004C192.514 223.307 197.378 222.527 200.456 222.337C207.563 221.9 209.643 224.087 202.754 233.381C198.436 239.207 200.262 243.655 202.926 246.866C212.551 247.218 224.756 245.322 232.46 239.274C237.394 234.066 235.409 222.67 235.647 214.869C233.926 214.283 231.768 214.45 229.213 215.693C217.536 222.738 210.701 214.648 203.51 214.502Z" fill="#BFC4C8"/>
<path d="M218.048 160.973C216.973 160.973 215.785 161.046 214.499 161.185C209.274 162.104 203.707 163.745 199.256 166.573C188.759 173.243 196.193 188.551 198.161 188.332C200.129 188.114 201.222 182.428 205.158 184.943C209.094 187.457 213.905 182.317 218.497 182.645C223.09 182.973 219.374 187.239 224.622 190.519C227.297 192.018 230.466 190.854 233.397 188.801C232.069 181.59 230.61 175.269 229.986 174.02C228.942 171.932 231.986 160.973 218.048 160.973Z" fill="#BFC4C8"/>
<path d="M183.155 255.355L183.619 268.151L204.781 255.355H183.155Z" fill="#BFC4C8"/>
<path d="M229.986 174.02C229.986 174.02 215.76 190.41 220.863 202.626C226.584 217.625 224.883 217.316 224.883 217.316C224.883 217.316 237.408 220.872 242.82 209.43C244.985 203.245 247.459 178.504 229.986 174.02Z" fill="#E15361"/>
<path d="M229.986 174.02C229.986 174.02 224.832 179.989 221.844 187.397C222.268 188.437 223.029 189.523 224.622 190.519C229.897 193.476 237.06 186.124 240.554 181.937C238.346 178.247 234.985 175.303 229.986 174.02Z" fill="#CA2333"/>
<path d="M211.317 98.3965C211.047 98.3965 210.78 98.4142 210.517 98.4546C159.783 105.015 189.634 164.495 194.554 179.256C199.474 194.017 200.894 172.479 200.894 172.479C200.952 172.378 201.004 172.299 201.061 172.201C196.241 165.902 197.988 151.449 198.133 150.326C194.597 148.313 191.303 145.019 188.649 141.753C180.34 129.179 193.568 119.668 193.568 119.668C195.755 118.356 197.422 117.397 198.981 117.288C200.539 117.179 201.989 117.916 203.738 119.994C207.237 127.101 210.844 122.072 215.874 122.946C220.904 123.821 222.764 130.382 216.093 143.394C214.993 145.442 213.842 147.079 212.658 148.366C212.628 148.49 212.574 148.617 212.484 148.75C210.406 151.812 213.141 160.013 216.531 165.699C216.792 166.137 217 166.552 217.183 166.958C224.667 168.766 221.376 186.702 227.203 187.009C258.254 181.225 228.321 98.4779 211.317 98.3965Z" fill="#42474C"/>
<path d="M193.232 106.695C193.232 106.695 180.89 113.699 182.336 132.378C182.892 143.719 190.563 166.4 191.008 166.622C191.452 166.845 192.009 164.399 191.119 162.064C190.23 159.729 177.888 130.933 193.454 113.366C198.791 107.807 196.123 105.361 193.232 106.695Z" fill="#636A72"/>
<path d="M193.569 119.666C193.569 119.666 180.339 129.178 188.649 141.753C195.756 150.5 207.455 159.466 216.093 143.393C222.763 130.381 220.904 123.821 215.874 122.946C210.845 122.071 207.236 127.101 203.737 119.994C200.238 115.839 197.943 117.042 193.569 119.666Z" fill="#FFC098"/>
<path d="M212.658 148.365C208.018 153.408 202.859 153.015 198.132 150.325C197.948 151.762 195.14 174.996 206.799 175.102C216.749 174.336 219.92 171.384 216.531 165.698C213.141 160.013 210.406 151.811 212.484 148.749C212.574 148.616 212.625 148.489 212.658 148.365Z" fill="#FFC098"/>
<path d="M134.416 221.898L182.088 226.053L183.619 268.149L138.681 264.213L134.416 221.898Z" fill="#636A72"/>
<path d="M183.619 268.15V270.47L138.677 265.908V264.213L183.619 268.15Z" fill="#737C85"/>
<path d="M183.619 268.15L204.781 255.355V257.052L183.619 270.471L183.619 268.15Z" fill="#99A0A7"/>
<path d="M238.645 214.823C234.102 218.415 228.58 217.981 226.171 217.57C225.857 217.855 207.949 234.151 198.905 249.479C195.349 254.118 185.839 252.649 185.607 260.999C185.916 265.947 192.035 264.054 193.843 262.94C201.03 257.512 201.088 261.89 207.333 255.665C210.898 252.11 237.253 239.274 238.645 214.842C238.645 214.83 238.645 214.831 238.645 214.823Z" fill="#FFC098"/>
<path d="M269.29 253.042C269.29 253.042 220.427 269.124 225.375 300.977C228.467 317.987 239.291 321.079 239.291 321.079C239.291 321.079 301.143 329.429 333.616 282.113C334.038 266.787 324.338 238.507 269.29 253.042Z" fill="#ACB2B7"/>
<path d="M295.705 249.014C288.34 249.097 279.611 250.317 269.29 253.042C269.29 253.042 220.427 269.123 225.375 300.977C225.783 303.223 226.332 305.212 226.967 306.998C238.073 311.027 257.543 313.382 288.473 303.031C316.067 293.223 326.711 276.735 329.854 265.444C325.136 256.543 315.193 248.796 295.705 249.014Z" fill="#D2D5D8"/>
<path d="M298.505 342.166C298.505 342.166 270.514 352.007 274.888 373C278.387 388.308 306.596 383.715 319.936 372.563C333.056 361.847 332.619 346.977 325.403 343.041C318.186 339.324 312.501 339.761 298.505 342.166Z" fill="#ACB2B7"/>
<path d="M300.216 358.19C300.216 358.19 285.371 371.798 292.794 373.963C298.979 376.127 323.719 374.581 330.214 354.479C332.997 346.129 311.658 335.305 305.473 350.768C302.69 363.138 300.216 358.19 300.216 358.19Z" fill="#868E96"/>
<path d="M307.121 306.998C295.783 313.803 283.855 317.547 273.204 319.533C275.494 324.809 294.665 368.615 299.906 367.159C305.473 365.612 307.947 363.138 308.566 360.664C309.136 358.382 307.403 314.111 307.121 306.998Z" fill="#42474C"/>
<path d="M244.825 277.693C244.825 277.693 237.016 281.094 239.258 281.558C241.5 282.022 246.371 279.935 247.608 280.553C248.845 281.172 250.469 284.574 261.447 283.259C270.184 282.254 274.359 281.326 273.74 277.693C273.122 274.059 272.658 271.817 267.014 273.749C261.37 275.682 245.907 276.378 244.825 277.693Z" fill="#ACB2B7"/>
<path d="M258.92 252.855C253.952 252.789 248.095 254.482 242.293 258.871C241.221 259.717 240.852 261.646 241.043 264.02C235.54 264.635 232.125 266.678 232.188 272.08C232.297 276.017 236.211 282.469 242.881 279.735C245.465 277.997 245.747 278.621 246.818 277.48C248.859 279.707 251.337 281.146 254.1 280.959C270.72 282.927 271.267 274.616 272.032 261.495C271.538 256.808 266.18 252.953 258.92 252.855ZM241.5 268.028C241.114 269.652 244.052 272.435 244.515 273.904C244.979 275.373 238.952 278.229 237.019 274.208C233.463 267.405 241.5 268.028 241.5 268.028Z" fill="#DC3545"/>
<path d="M243.278 262.963C243.278 262.963 241.191 256.237 257.234 253.647C259.282 253.53 269.913 253.492 268.29 261.146C265.584 266.713 243.278 262.963 243.278 262.963Z" fill="#CA2333"/>
<path d="M243.276 263.025C243.276 263.025 243.385 255.809 257.271 254.606C264.051 254.388 269.846 258.433 267.987 262.916C266.128 267.399 248.306 273.85 243.276 263.025Z" fill="#9B3D01"/>
<path d="M105.197 66.0391V252.835C105.197 252.835 106.454 255.076 109.403 254.997C110.896 254.997 112.39 254.565 113.373 252.835V66.0391H105.197Z" fill="#FFC107"/>
<path d="M105.011 244.903C102.528 244.607 100.802 252.425 99.9979 257.027C98.3254 257.823 96.5122 258.978 94.5303 260.612C94.5303 260.612 93.0641 262.472 91.6383 265.265C83.5526 264.874 68.3573 264.71 72.7276 269.426C78.1245 273.673 84.5256 276.746 89.2826 277.766C89.9649 280.952 91.9287 284.067 96.0766 286.59C107.983 294.012 117.416 275.457 117.261 271.591C117.163 269.154 115.158 259.662 109.278 256.609C109.009 252.162 107.721 245.98 105.354 244.994C105.238 244.946 105.124 244.916 105.011 244.903Z" fill="#D2D5D8"/>
<path d="M89.4275 267.184C89.4275 267.184 76.0135 267.145 76.9413 267.841C77.8691 268.537 86.103 273.601 88.2678 271.9C90.4326 270.199 90.5099 267.571 89.4275 267.184Z" fill="#E7727D"/>
<path d="M104.736 246.772C104.736 246.772 102.648 257.519 104.581 257.364C106.514 257.21 107.674 256.282 107.674 254.658C107.674 253.035 106.669 244.916 104.736 246.772Z" fill="#E7727D"/>
<path d="M110.844 272.828C110.844 272.828 107.055 275.07 107.442 275.843C107.828 276.616 110.921 277.466 111.617 276.693C112.313 275.92 112.39 271.9 110.844 272.828Z" fill="#E7727D"/>
<path d="M212.658 148.366C208.018 153.408 202.859 153.016 198.132 150.325C198.072 150.8 197.731 153.675 197.714 157.293C202.06 158.483 208.383 157.223 209.111 162.113C209.762 166.482 207.565 171.601 205.707 175.015C206.056 175.066 206.419 175.099 206.799 175.102C216.749 174.336 219.92 171.384 216.531 165.698C213.141 160.013 210.406 151.811 212.484 148.749C212.574 148.616 212.625 148.49 212.658 148.366Z" fill="#FE9551"/>
<path d="M200.152 117.377C201.334 129.379 207.436 124.873 213.131 125.311C218.522 125.761 216.979 137.563 215.731 144.026C215.851 143.814 215.974 143.615 216.093 143.393C222.763 130.382 220.903 123.821 215.874 122.946C210.844 122.071 207.237 127.101 203.738 119.994C202.432 118.443 201.293 117.64 200.152 117.377Z" fill="#FE9551"/>
<path d="M202.986 113.981C197.198 113.957 190.461 119.319 188.39 125.368C190.629 121.807 193.568 119.668 193.568 119.668C195.755 118.356 197.422 117.397 198.98 117.288C200.538 117.179 201.988 117.917 203.737 119.994C207.236 127.101 210.844 122.072 215.873 122.947C220.903 123.821 222.763 130.383 216.093 143.394C214.992 145.442 213.842 147.079 212.657 148.366C212.627 148.49 212.573 148.617 212.484 148.751C210.406 151.812 213.141 160.014 216.53 165.699C216.792 166.137 217 166.553 217.183 166.958C224.573 168.744 221.463 186.245 226.994 186.978C227.591 185.143 229.324 178.924 227.357 172.629C225.038 165.206 217.306 158.557 220.708 148.043C224.11 137.528 229.676 123.302 219.316 118.972C214.677 117.581 214.677 121.292 207.564 115.416C206.202 114.43 204.632 113.987 202.986 113.981ZM190.041 143.363C192.737 156.951 197.102 175.537 199.297 182.25C200.468 178.809 200.894 172.479 200.894 172.479C200.952 172.379 201.004 172.299 201.061 172.201C196.241 165.902 197.988 151.45 198.132 150.326C195.181 148.646 192.423 146.067 190.041 143.363Z" fill="#323232"/>
<path d="M134.461 222.344L138.68 264.212L183.43 268.133L134.461 222.344Z" fill="#42474C"/>
<path d="M238.645 214.823C237.492 215.735 236.275 216.386 235.062 216.845C234.441 221.091 232.437 230.981 226.589 236.66C219.919 243.22 208.329 252.951 203.846 255.575C199.92 257.873 190.211 261.431 187.564 263.969C189.604 264.732 192.654 263.672 193.844 262.939C201.031 257.512 201.088 261.89 207.333 255.665C210.898 252.11 237.253 239.274 238.645 214.842C238.645 214.83 238.645 214.831 238.645 214.823Z" fill="#FE9551"/>
<path d="M189.154 176.721C184.809 181.604 176.242 193.613 180.388 208.847C181.092 209.023 181.853 209.196 182.643 209.343C176.962 199.55 183.099 186.151 189.154 176.721Z" fill="#CA2333"/>
<path d="M189.164 185.154C189.164 185.154 176.948 196.287 185.453 209.276C192.256 215.461 201.07 213.915 201.225 209.895C201.379 205.874 199.524 206.957 196.895 197.679C194.266 188.401 193.184 180.67 189.164 185.154Z" fill="#E3E5E7"/>
<path d="M240.191 185.307C240.191 185.307 232.46 189.172 231.532 200.306C230.605 211.439 234.006 215.769 237.254 213.14C240.501 210.511 246.686 201.697 240.191 185.307Z" fill="#E7727D"/>
<path d="M192.476 229.443C192.476 229.443 190.508 235.019 192.257 237.424C194.006 239.83 198.599 245.187 196.193 244.86C193.788 244.531 191.054 245.953 190.726 242.345C190.398 238.736 188.212 227.256 192.476 229.443Z" fill="#E3E5E7"/>
<path d="M226.152 219.494C226.152 219.494 204.831 239.066 199.364 250.437C198.271 254.592 204.394 249.235 206.471 248.141C208.549 247.048 238.945 216.651 226.152 219.494Z" fill="#FFD6BB"/>
<path d="M148.341 279.787C148.341 279.787 119.765 334.628 118.671 354.747C119.327 358.027 122.389 358.027 125.013 353.435C127.637 348.843 156.284 283.457 154.097 281.271C151.911 279.084 151.77 278.521 148.341 279.787Z" fill="#21A4DF"/>
<path d="M131.136 277.115C131.136 277.115 107.738 334.847 107.519 341.407C109.268 344.25 114.954 345.343 115.61 338.564C116.266 331.785 139.665 273.179 131.136 277.115Z" fill="#21A4DF"/>
<path d="M124.966 360.588C124.508 362.198 123.222 364.059 119.648 362.523L119.659 363.441C119.659 363.441 124.221 367.539 130.174 363.673C130.174 363.005 130.258 362.005 130.351 361.049C128.307 361.786 126.627 361.399 124.966 360.588Z" fill="#FE9551"/>
<path d="M117.812 348.065C116.376 348.412 115.12 348.43 113.985 348.267C113.259 349.167 111.973 349.903 109.708 349.014L109.762 350.374C109.762 350.374 113.432 352.935 117.305 351.155C117.425 350.212 117.589 349.188 117.812 348.065Z" fill="#FE9551"/>
<path d="M108.37 351.149C108.37 351.149 94.9556 357.759 95.9606 361.625C96.6565 363.867 99.7104 363.867 101.643 362.011C103.576 360.156 105.161 359.112 108.524 355.904C111.887 352.695 112.699 350.839 108.37 351.149Z" fill="#A8E169"/>
<path d="M116.758 363.985C116.758 363.985 101.45 371.42 102.489 377.27C103.036 380.331 106.589 379.457 108.12 376.341C109.651 373.224 112.548 371.967 117.25 369.179C121.952 366.391 118.507 363.165 116.758 363.985Z" fill="#A8E169"/>
<path d="M181.737 375.76C181.095 385.368 177.222 410.864 153.879 422.535C117.112 439.495 95.8422 432.628 84.2982 423.475C88.9609 435.364 94.5047 444.251 102.262 444.621C115.251 445.239 173.082 442.765 186.69 392.974C185.458 388.772 183.88 382.652 181.737 375.76Z" fill="#258278"/>
<path d="M112.986 393.234C112.986 393.234 104.239 399.138 110.799 409.854C115.61 415.758 137.478 405.48 144.694 398.264C151.911 391.047 152.785 382.956 159.346 370.491C165.906 358.027 171.592 348.623 165.469 352.56C159.346 356.496 156.722 374.428 147.974 378.145C139.227 381.863 133.104 389.298 126.544 393.453C119.983 397.608 121.077 387.111 112.986 393.234Z" fill="#47CABC"/>
<path d="M101.177 329.161C101.177 329.161 69.6872 350.373 75.3728 373.553C80.8398 394.546 84.3387 374.865 86.5255 365.025C88.7123 355.184 92.2112 353.216 98.3343 346.874C104.457 340.532 105.769 326.1 101.177 329.161Z" fill="#47CABC"/>
<path d="M271.745 265.862C271.144 268.35 268.359 277.707 260.442 277.305C252.507 276.944 247.195 276.175 242.438 268.851C241.954 267.754 241.384 266.519 241.384 266.519C241.384 266.519 234.31 266.287 234.078 271.468C234.04 274.405 235.199 278.928 241.539 277.498C244.502 276.808 245.59 276.339 245.832 275.932C246.29 276.528 246.662 277.101 246.808 277.488C246.808 277.488 246.808 277.488 246.82 277.476C248.861 279.702 251.339 281.141 254.102 280.955C268.784 282.694 270.918 276.398 271.745 265.862ZM241.162 268.013C241.374 268.013 241.501 268.027 241.501 268.027C241.114 269.651 244.052 272.434 244.516 273.903C244.98 275.372 238.952 278.228 237.019 274.208C233.907 268.255 239.672 267.986 241.162 268.013Z" fill="#CA2333"/>
<path d="M307.121 306.998C295.783 313.803 283.855 317.547 273.204 319.533C273.517 320.253 274.189 321.787 275.052 323.729C280.382 323.212 289.697 321.744 297.222 317.465C299.562 318.103 303.759 361.135 298.756 366.912C299.19 367.16 299.576 367.25 299.906 367.159C305.473 365.612 307.947 363.138 308.566 360.664C309.136 358.382 307.403 314.111 307.121 306.998Z" fill="#323232"/>
<path d="M114.555 307.309C114.555 307.309 110.225 288.522 106.823 289.914C104.659 290.919 111.153 309.01 114.555 307.309Z" fill="#E3E5E7"/>
<path d="M88.0359 288.754C88.0359 288.754 83.8609 295.635 84.5567 300.196C85.2525 304.758 87.8812 303.753 92.752 299.964C97.6229 296.176 95.7674 292.697 93.5253 291.305C91.2831 289.914 89.4275 287.439 88.0359 288.754Z" fill="#E3E5E7"/>
<path d="M94.8353 265.634C94.8353 265.634 97.7875 258.527 104.567 259.839C111.346 261.151 106.425 263.229 106.425 266.728C106.425 270.227 104.348 270.227 101.286 269.243C98.2249 268.259 92.3205 268.477 94.8353 265.634Z" fill="#E3E5E7"/>
<path d="M68.9392 313.727C68.9392 313.727 59.1203 318.444 62.2129 326.407C64.9189 332.283 65.0735 325.866 65.692 323.392C66.3105 320.918 67.8568 318.753 69.7125 317.516C71.568 316.279 70.7948 312.49 68.9392 313.727Z" fill="#E3E5E7"/>
<path d="M75.6656 331.975C75.6656 331.975 82.9332 328.495 88.1134 330.274C90.8966 331.511 84.7115 330.583 82.1601 331.279C79.6087 331.975 73.4236 334.913 75.6656 331.975Z" fill="#E3E5E7"/>
<path d="M81.3869 301.356C81.3869 301.356 70.7174 309.165 74.7378 315.273C77.5211 320.298 79.7633 321.845 79.686 320.608C79.6093 319.37 77.2119 315.118 77.5211 313.495C77.8303 311.871 82.1601 308.16 82.8559 305.531C83.5517 302.902 83.629 300.196 81.3869 301.356Z" fill="#E3E5E7"/>
<path d="M310.216 45.3281H370.063V91.379H309.51L310.216 45.3281Z" fill="#F4F5F6"/>
<path d="M316.53 51.791H364.734V84.201H315.914L316.53 51.791Z" fill="#FFDC72"/>
<path d="M354.494 56.0371L343.833 73.9502L332.157 62.274L316.02 84.1993H364.735V65.5349C360.65 61.4635 354.494 56.0371 354.494 56.0371Z" fill="#FCAF17"/>
<path d="M309.966 45.3281L309.248 91.3791H370.786V45.3281H309.966ZM312.948 48.352H367.884V89.2031H312.3L312.948 48.352Z" fill="#EA8024"/>
<path d="M231.458 70.2051H291.305V116.256H230.751L231.458 70.2051Z" fill="#F4F5F6"/>
<path d="M237.772 76.668H285.976V109.078H237.156L237.772 76.668Z" fill="#FFDC72"/>
<path d="M275.736 80.9141L265.075 98.8271L253.399 87.1509L237.261 109.076H285.976V90.4118C281.892 86.3404 275.736 80.9141 275.736 80.9141Z" fill="#FCAF17"/>
<path d="M231.207 70.2051L230.49 116.256H292.027V70.2051H231.207ZM234.19 73.229H289.126V114.08H233.541L234.19 73.229Z" fill="#EA8024"/>
<path d="M105.197 66.0391V252.835C105.197 252.835 105.702 255.076 106.886 254.997C107.486 254.997 108.086 254.565 108.481 252.835V66.0391H105.197Z" fill="#EEA320"/>
<path d="M111.329 66.0391V252.835C111.329 252.835 111.643 255.076 112.38 254.997C112.754 254.997 113.127 254.565 113.373 252.835V66.0391H111.329Z" fill="#FFD34E"/>
<path d="M85.8567 5.03125L73.1575 67.2966C73.1575 67.2966 76.5798 76.259 108.656 75.7873C130.983 75.1584 143.645 70.4413 145.412 67.2966L132.398 5.03125H85.8567Z" fill="#FFC107"/>
<path d="M85.8567 5.03125L73.1575 67.2966C73.1575 67.2966 74.7405 71.3108 85.3973 73.8243L94.9468 8.85405L91.274 5.03125H85.8567Z" fill="#EEA320"/>
<path d="M85.8567 5.03152C85.8567 5.03152 86.9574 0.314472 108.813 0C126.895 0 132.398 5.03152 132.398 5.03152C132.398 5.03152 126.738 10.3776 108.184 10.0631C93.2468 9.90586 89.3159 7.39005 85.8567 5.03152Z" fill="#FFDC72"/>
<path d="M111.25 3.1447C94.1212 2.99246 90.2973 7.15362 90.0701 7.41955C93.3704 8.83949 98.3993 9.96009 108.184 10.0631C118.679 10.2409 125.042 8.60652 128.595 7.15421C127.283 5.81865 120.802 3.36685 111.25 3.1447Z" fill="#FFE596"/>
<path d="M191.619 123.095C191.619 123.095 185.227 129.932 186.839 133.991C187.839 137.382 189.711 140.569 190.654 140.019C191.598 139.468 196.629 131.292 195.764 127.99C194.9 124.688 195.493 120.007 191.619 123.095Z" fill="#FFD6BB"/>
</svg>
