<svg width="718" height="581" viewBox="0 0 718 581" fill="none" xmlns="http://www.w3.org/2000/svg">
<path d="M667.692 308.075C690.83 102.322 151.805 -131.502 53.225 144.458C-16.6236 332.508 -41.5024 402.157 213.65 396.11C342.562 396.141 298.122 364.944 477.096 403.311C554.381 416.279 639.713 375.399 656.092 344.749C656.092 344.749 666.016 329.406 667.692 308.075Z" fill="#FFC200"/>
<path d="M643.415 305.876C664.81 115.616 166.374 -100.601 75.2173 154.579C10.6284 328.469 -12.3771 392.873 223.562 387.282C342.767 387.31 301.673 358.463 467.171 393.941C538.636 405.932 617.543 368.131 632.688 339.788C632.688 339.788 641.865 325.601 643.415 305.876Z" fill="#FEFEFE"/>
<g clip-path="url(#clip0_470_1236)">
<ellipse cx="338" cy="144.5" rx="31" ry="30.5" fill="#FFC200"/>
<path d="M366.73 327.035C359.602 319.895 352.88 311.962 352.704 305.542C351.114 249.052 334.634 235.422 335.534 213.542C335.55 213.367 335.499 213.194 335.391 213.056C335.283 212.919 335.127 212.828 334.954 212.802C334.944 212.802 334.944 212.802 334.934 212.792C334.76 212.777 334.588 212.83 334.454 212.94C334.319 213.05 334.233 213.209 334.214 213.382C329.724 249.562 346.074 282.782 345.534 307.392C345.274 319.252 347.124 327.572 350.014 333.392C353.504 340.452 358.524 343.832 363.174 345.392H372.07C370.876 339.117 369.088 332.97 366.73 327.035Z" fill="#3F3D56"/>
<path d="M408.214 210.852C408.214 210.85 408.214 210.849 408.213 210.848C408.213 210.846 408.212 210.845 408.211 210.844C408.21 210.843 408.209 210.843 408.208 210.842C408.206 210.842 408.205 210.842 408.204 210.842C408.135 210.79 408.056 210.752 407.973 210.73C407.889 210.708 407.802 210.703 407.717 210.715C407.631 210.728 407.549 210.756 407.475 210.8C407.4 210.844 407.336 210.902 407.284 210.972C385.736 239.246 372.632 301.109 369.859 326.903C372.163 332.893 373.912 339.082 375.085 345.392H381.064C381.602 344.47 381.997 343.472 382.234 342.432C382.911 339.465 383.273 336.435 383.314 333.392C383.584 326.572 383.174 316.412 381.534 301.392C378.884 277.092 386.434 240.522 408.344 211.782C408.449 211.641 408.495 211.464 408.471 211.29C408.446 211.116 408.354 210.958 408.214 210.852ZM375.514 344.252C375.552 344.333 375.576 344.421 375.584 344.512C375.494 344.382 375.474 344.302 375.514 344.252Z" fill="#3F3D56"/>
<path d="M182.873 333.388C182.483 340.297 181.913 344.408 181.903 344.497C181.88 344.656 181.8 344.801 181.679 344.905C181.558 345.01 181.403 345.067 181.243 345.067C181.209 345.069 181.176 345.065 181.143 345.057C180.969 345.032 180.813 344.938 180.708 344.798C180.603 344.657 180.558 344.481 180.583 344.307C179.915 344.752 179.197 345.115 178.443 345.388H175.423C173.333 344.557 171.313 341.577 170.913 333.388C170.563 326.287 171.433 315.287 174.533 298.388C178.943 274.348 171.293 238.517 149.383 209.778C149.278 209.637 149.232 209.46 149.257 209.286C149.281 209.112 149.373 208.954 149.513 208.848C149.581 208.794 149.658 208.755 149.742 208.731C149.825 208.708 149.912 208.701 149.997 208.712C150.083 208.722 150.166 208.749 150.241 208.791C150.316 208.834 150.382 208.89 150.436 208.958L150.443 208.968C172.543 237.968 179.913 273.267 182.213 297.787C183.31 309.622 183.531 321.521 182.873 333.388Z" fill="#3F3D56"/>
<path d="M284.276 301.637C284.501 300.093 282.884 298.58 280.664 298.257C278.445 297.934 276.463 298.924 276.239 300.468C276.014 302.012 277.631 303.525 279.851 303.848C282.07 304.171 284.052 303.181 284.276 301.637Z" fill="white"/>
<path d="M310.702 299.059C310.927 297.515 309.309 296.002 307.09 295.679C304.87 295.356 302.889 296.346 302.664 297.89C302.44 299.434 304.057 300.947 306.276 301.27C308.496 301.593 310.477 300.603 310.702 299.059Z" fill="#3F3D56"/>
<path d="M277.04 280.245C277.264 278.701 275.647 277.187 273.428 276.865C271.208 276.542 269.227 277.531 269.002 279.075C268.777 280.619 270.394 282.133 272.614 282.456C274.834 282.779 276.815 281.789 277.04 280.245Z" fill="#FF983D"/>
<path d="M265.558 271.48C265.568 270.063 264.778 268.907 263.792 268.9C262.805 268.892 261.997 270.036 261.987 271.453C261.976 272.87 262.767 274.026 263.753 274.033C264.739 274.04 265.547 272.897 265.558 271.48Z" fill="#E6E6E6"/>
<path d="M261.663 255.158C261.674 253.74 260.884 252.585 259.897 252.578C258.911 252.57 258.103 253.713 258.093 255.131C258.082 256.548 258.873 257.703 259.859 257.711C260.845 257.718 261.653 256.575 261.663 255.158Z" fill="#3F3D56"/>
<path d="M291.944 283.884C291.955 282.467 291.165 281.312 290.178 281.304C289.192 281.297 288.384 282.44 288.374 283.857C288.363 285.275 289.154 286.43 290.14 286.437C291.126 286.445 291.934 285.302 291.944 283.884Z" fill="#E6E6E6"/>
<path d="M279.174 290.261C279.185 288.844 278.394 287.689 277.408 287.681C276.422 287.674 275.614 288.817 275.604 290.234C275.593 291.652 276.384 292.807 277.37 292.814C278.356 292.822 279.164 291.679 279.174 290.261Z" fill="#FF983D"/>
<path d="M296.951 302.044C296.962 300.627 296.171 299.472 295.185 299.464C294.199 299.457 293.391 300.6 293.38 302.017C293.369 303.435 294.16 304.59 295.146 304.597C296.132 304.605 296.94 303.462 296.951 302.044Z" fill="#3F3D56"/>
<path d="M535.693 145.775C536.181 143.847 534.331 141.715 531.559 141.013C528.788 140.31 526.145 141.304 525.657 143.232C525.168 145.16 527.019 147.292 529.79 147.994C532.561 148.697 535.204 147.703 535.693 145.775Z" fill="white"/>
<path d="M501.849 145.556C502.337 143.629 500.487 141.496 497.715 140.794C494.944 140.092 492.301 141.085 491.813 143.013C491.324 144.941 493.175 147.073 495.946 147.776C498.718 148.478 501.36 147.484 501.849 145.556Z" fill="#3F3D56"/>
<path d="M542.043 173.853C542.532 171.925 540.681 169.793 537.91 169.091C535.139 168.389 532.496 169.382 532.007 171.31C531.519 173.238 533.369 175.37 536.141 176.072C538.912 176.775 541.555 175.781 542.043 173.853Z" fill="#FF983D"/>
<path d="M549.933 184.44C550.134 182.644 549.284 181.075 548.034 180.936C546.785 180.796 545.61 182.138 545.409 183.934C545.209 185.73 546.059 187.299 547.308 187.438C548.557 187.578 549.732 186.235 549.933 184.44Z" fill="#E6E6E6"/>
<path d="M552.716 205.649C552.916 203.853 552.066 202.284 550.817 202.145C549.568 202.005 548.393 203.347 548.192 205.143C547.992 206.939 548.842 208.508 550.091 208.647C551.34 208.787 552.515 207.444 552.716 205.649Z" fill="#3F3D56"/>
<path d="M518.115 165.233C518.316 163.437 517.466 161.868 516.217 161.728C514.968 161.589 513.792 162.931 513.592 164.727C513.391 166.523 514.241 168.092 515.49 168.231C516.74 168.371 517.915 167.028 518.115 165.233Z" fill="#E6E6E6"/>
<path d="M535.147 158.834C535.348 157.038 534.498 155.47 533.249 155.33C532 155.19 530.824 156.533 530.624 158.329C530.423 160.124 531.273 161.693 532.522 161.833C533.771 161.972 534.947 160.63 535.147 158.834Z" fill="#FF983D"/>
<path d="M514.165 141.547C514.365 139.751 513.515 138.183 512.266 138.043C511.017 137.903 509.842 139.246 509.641 141.042C509.44 142.837 510.29 144.406 511.54 144.546C512.789 144.685 513.964 143.343 514.165 141.547Z" fill="#3F3D56"/>
<path d="M395.072 570.488C394.822 570.499 394.576 570.434 394.365 570.301C394.154 570.167 393.99 569.972 393.894 569.742C393.797 569.512 393.774 569.258 393.827 569.014C393.88 568.77 394.007 568.549 394.19 568.38L394.273 568.048L394.24 567.969C393.989 567.376 393.569 566.87 393.031 566.516C392.494 566.161 391.864 565.973 391.22 565.976C390.576 565.978 389.947 566.171 389.413 566.529C388.878 566.888 388.461 567.396 388.215 567.991C387.229 570.365 385.974 572.742 385.666 575.252C385.529 576.361 385.587 577.486 385.835 578.576C383.52 573.526 382.319 568.038 382.311 562.484C382.31 561.09 382.388 559.697 382.543 558.312C382.671 557.177 382.849 556.049 383.076 554.93C384.317 548.856 386.98 543.163 390.848 538.319C392.72 537.297 394.234 535.727 395.186 533.818C395.531 533.132 395.775 532.4 395.91 531.644C395.5 530.562 395.284 529.415 395.273 528.258C394.979 527.811 394.452 527.59 394.13 527.154C392.532 524.986 390.329 525.365 389.18 528.31C386.724 529.55 386.7 531.605 388.207 533.583C389.166 534.841 389.297 536.543 390.139 537.889C390.052 538 389.962 538.108 389.875 538.218C388.293 540.253 386.914 542.437 385.758 544.741C386.039 542.16 385.704 539.55 384.779 537.124C383.842 534.864 382.086 532.96 380.539 531.006C380.13 530.481 379.575 530.089 378.943 529.88C378.311 529.67 377.631 529.653 376.99 529.83C376.348 530.007 375.773 530.37 375.338 530.873C374.903 531.377 374.627 531.998 374.544 532.658L374.535 532.745C374.765 532.875 374.99 533.012 375.21 533.158C375.486 533.342 375.7 533.606 375.824 533.915C375.948 534.223 375.976 534.562 375.904 534.886C375.832 535.211 375.664 535.506 375.421 535.734C375.179 535.961 374.873 536.11 374.545 536.16L374.511 536.165C374.593 536.993 374.737 537.814 374.944 538.62C372.959 546.293 377.243 549.088 383.36 549.214C383.495 549.283 383.626 549.352 383.761 549.418C382.6 552.71 381.872 556.138 381.594 559.617C381.437 561.67 381.447 563.732 381.622 565.783L381.612 565.711C381.168 563.43 379.952 561.372 378.167 559.884C375.516 557.706 371.771 556.904 368.911 555.154C368.607 554.959 368.253 554.855 367.892 554.854C367.531 554.853 367.177 554.955 366.872 555.149C366.567 555.343 366.324 555.619 366.172 555.947C366.019 556.274 365.963 556.638 366.01 556.996L366.022 557.073C366.448 557.246 366.863 557.446 367.265 557.672C367.495 557.801 367.719 557.939 367.94 558.084C368.216 558.269 368.43 558.533 368.554 558.841C368.678 559.15 368.706 559.489 368.634 559.813C368.562 560.138 368.394 560.433 368.151 560.66C367.908 560.888 367.603 561.036 367.274 561.087L367.241 561.092L367.171 561.103C367.9 562.842 368.922 564.443 370.194 565.835C371.434 572.534 376.763 573.169 382.463 571.219H382.467C383.092 573.936 383.998 576.582 385.171 579.112H394.83C394.864 579.005 394.895 578.894 394.927 578.787C394.033 578.843 393.135 578.79 392.254 578.628C392.971 577.748 393.687 576.862 394.404 575.983C394.42 575.966 394.435 575.949 394.449 575.931C394.812 575.481 395.179 575.034 395.543 574.584C395.562 573.204 395.404 571.827 395.072 570.488Z" fill="#F2F2F2"/>
<path d="M635.736 570.488C635.986 570.499 636.232 570.434 636.443 570.301C636.654 570.167 636.818 569.972 636.914 569.742C637.011 569.512 637.034 569.258 636.981 569.014C636.928 568.77 636.801 568.549 636.618 568.38L636.535 568.048L636.568 567.969C636.819 567.376 637.239 566.87 637.777 566.516C638.314 566.161 638.944 565.973 639.588 565.976C640.232 565.978 640.861 566.171 641.395 566.529C641.93 566.888 642.347 567.396 642.593 567.991C643.579 570.365 644.834 572.742 645.143 575.252C645.279 576.361 645.221 577.486 644.973 578.576C647.288 573.526 648.49 568.038 648.497 562.484C648.498 561.09 648.42 559.697 648.265 558.312C648.137 557.177 647.959 556.049 647.732 554.93C646.491 548.856 643.828 543.163 639.96 538.319C638.088 537.297 636.574 535.727 635.622 533.818C635.277 533.132 635.033 532.4 634.898 531.644C635.308 530.562 635.524 529.415 635.535 528.258C635.83 527.811 636.356 527.59 636.678 527.154C638.276 524.986 640.479 525.365 641.628 528.31C644.085 529.55 644.108 531.605 642.601 533.583C641.642 534.841 641.511 536.543 640.669 537.889C640.756 538 640.846 538.108 640.933 538.218C642.515 540.253 643.894 542.437 645.05 544.741C644.769 542.16 645.104 539.55 646.029 537.124C646.966 534.864 648.722 532.96 650.269 531.006C650.678 530.481 651.233 530.089 651.865 529.88C652.497 529.67 653.177 529.653 653.818 529.83C654.46 530.007 655.035 530.37 655.47 530.873C655.905 531.377 656.181 531.998 656.264 532.658L656.273 532.745C656.043 532.875 655.818 533.012 655.598 533.158C655.322 533.342 655.108 533.606 654.984 533.915C654.86 534.223 654.832 534.562 654.904 534.886C654.976 535.211 655.144 535.506 655.387 535.734C655.629 535.961 655.935 536.11 656.263 536.16L656.297 536.165C656.215 536.993 656.071 537.814 655.864 538.62C657.849 546.293 653.565 549.088 647.448 549.214C647.313 549.283 647.182 549.352 647.047 549.418C648.208 552.71 648.936 556.138 649.214 559.617C649.371 561.67 649.361 563.732 649.186 565.783L649.196 565.711C649.64 563.43 650.856 561.372 652.641 559.884C655.292 557.706 659.037 556.904 661.897 555.154C662.201 554.959 662.555 554.855 662.916 554.854C663.277 554.853 663.631 554.955 663.936 555.149C664.241 555.343 664.484 555.619 664.637 555.947C664.789 556.274 664.845 556.638 664.798 556.996L664.786 557.073C664.36 557.246 663.945 557.446 663.543 557.672C663.314 557.801 663.089 557.939 662.869 558.084C662.592 558.269 662.378 558.533 662.254 558.841C662.13 559.15 662.102 559.489 662.174 559.813C662.246 560.138 662.415 560.433 662.657 560.66C662.9 560.888 663.205 561.036 663.534 561.087L663.568 561.092L663.637 561.103C662.908 562.842 661.886 564.443 660.614 565.835C659.374 572.534 654.045 573.169 648.345 571.219H648.341C647.716 573.936 646.81 576.582 645.638 579.112H635.978C635.944 579.005 635.913 578.894 635.881 578.787C636.776 578.843 637.673 578.79 638.554 578.628C637.838 577.748 637.121 576.862 636.404 575.983C636.388 575.966 636.373 575.949 636.359 575.931C635.996 575.481 635.629 575.034 635.265 574.584C635.246 573.204 635.404 571.827 635.736 570.488Z" fill="#F2F2F2"/>
<path d="M577.63 569.68L568.58 569.679L564.275 534.771L577.632 534.773L577.63 569.68Z" fill="#FFC098"/>
<path d="M577.949 579.121L550.119 579.12V578.768C550.119 575.896 551.261 573.141 553.292 571.109C555.323 569.078 558.078 567.937 560.951 567.937L566.035 564.08L575.52 567.937L577.949 567.937L577.949 579.121Z" fill="#2F2E41"/>
<path d="M509.63 569.68L500.58 569.679L496.275 534.771L509.632 534.773L509.63 569.68Z" fill="#FFC098"/>
<path d="M509.949 579.121L482.119 579.12V578.768C482.119 575.896 483.261 573.141 485.292 571.109C487.323 569.078 490.078 567.937 492.951 567.937L498.035 564.08L507.52 567.937L509.949 567.937L509.949 579.121Z" fill="#2F2E41"/>
<path d="M585.688 275.049L570.633 281.097C570.477 291.679 580.908 313.574 580.908 313.574L586.003 353.783C585.456 354.916 585.217 356.173 585.31 357.428C585.403 358.683 585.825 359.891 586.534 360.931C587.242 361.971 588.212 362.806 589.346 363.352C590.48 363.897 591.738 364.135 592.992 364.04C594.247 363.946 595.455 363.522 596.494 362.812C597.533 362.102 598.367 361.131 598.911 359.997C599.456 358.863 599.692 357.605 599.596 356.35C599.499 355.095 599.074 353.888 598.363 352.85L598.936 302.288L585.688 275.049Z" fill="#FFC098"/>
<path d="M555.832 240.807C558.177 239.896 560.693 239.513 563.203 239.685C565.712 239.857 568.153 240.58 570.352 241.802C572.55 243.025 574.452 244.717 575.922 246.758C577.392 248.799 578.395 251.139 578.858 253.612L580.743 263.681C580.743 263.681 602.378 292.941 600.363 303.591L577.227 306.529C577.227 306.529 573.317 291.838 567.125 287.217C563.332 284.387 555.904 271.334 551.38 259.837C547.925 251.058 547.038 244.224 555.832 240.807Z" fill="#35B9AB"/>
<path d="M494.404 328.771C494.404 328.771 477.669 345.092 481.243 348.862C484.817 352.631 492.991 357.912 485.404 358.772C477.817 359.631 474.669 361.496 481.243 363.064C487.817 364.631 486.801 368.657 486.801 368.657C486.801 368.657 476.904 415.771 484.404 446.772C484.404 446.772 488.578 531.443 491.198 538.037C493.817 544.632 494.817 540.631 493.817 544.631C492.817 548.631 490.817 541.631 492.817 548.631C493.908 552.288 494.772 556.008 495.404 559.772L514.966 556.772C514.966 556.772 518.116 546.844 514.966 544.238C511.817 541.632 508.992 543.238 512.404 537.435C515.817 531.631 516.817 539.631 515.817 531.631C514.817 523.631 518.992 480.364 512.404 457.498L524.578 393.335L543.904 459.772C543.904 459.772 554.155 540.912 557.486 543.772C560.817 546.631 565.817 541.631 560.817 546.631C555.817 551.631 555.904 550.771 555.817 551.631C554.886 560.804 583.515 550.772 583.515 550.772C583.356 548.441 583.356 546.102 583.515 543.772C583.817 541.631 580.214 540.947 583.515 538.789C586.817 536.631 581.904 538.771 581.904 538.771C581.904 538.771 574.521 478.912 568.904 460.771L562.404 372.435C562.404 372.435 561.992 374.197 562.404 369.914C562.817 365.632 565.817 368.631 562.817 365.631C559.817 362.631 557.817 361.103 559.817 358.867C561.817 356.631 567.334 352.108 564.076 349.37C560.817 346.631 554.404 328.772 554.404 328.772L491.904 329.272" fill="#2F2E41"/>
<path d="M517.903 229.599L529.173 216.91L546.98 218.889L558.38 234.844C564.449 236.239 569.751 239.906 573.198 245.092C576.644 250.278 577.972 256.588 576.908 262.723C574.713 275.364 569.905 287.816 566.224 298.69C565.784 299.99 567.385 304.653 564.959 302.521C562.533 300.389 563.961 305.709 563.532 307.236C561.468 314.582 560.587 320.85 562.414 325.475C563.356 327.86 569.238 332.816 564.886 332.102C560.533 331.389 566.142 335.969 566.552 337.645C569.031 347.784 565.915 351.671 552.37 349.662C534.331 346.987 473.897 340.82 485.614 329.103C497.331 317.386 499.904 297.807 499.904 297.807L500.374 253.013C499.416 247.82 500.561 242.46 503.556 238.111C506.55 233.762 511.15 230.781 516.342 229.824C516.859 229.728 517.38 229.654 517.903 229.599Z" fill="#35B9AB"/>
<path d="M514.538 281.013L499.062 276.141C492.231 284.223 486.408 307.766 486.408 307.766L464.845 342.084C463.703 342.613 462.721 343.434 461.997 344.463C461.273 345.492 460.833 346.694 460.721 347.948C460.61 349.201 460.83 350.462 461.36 351.603C461.891 352.744 462.712 353.725 463.743 354.448C464.773 355.17 465.975 355.609 467.229 355.719C468.482 355.829 469.743 355.608 470.883 355.076C472.024 354.544 473.004 353.721 473.725 352.69C474.447 351.659 474.884 350.456 474.992 349.203L507.505 310.475L514.538 281.013Z" fill="#FFC098"/>
<path d="M513.173 235.605C515.564 236.387 517.753 237.687 519.584 239.412C521.415 241.137 522.843 243.244 523.768 245.583C524.692 247.923 525.089 250.437 524.931 252.948C524.773 255.459 524.064 257.903 522.854 260.109L517.925 269.089C517.925 269.089 516.676 309.635 508.363 316.591L488.03 299.986C488.03 299.986 494.325 286.148 492.468 278.648C491.331 274.054 493.867 259.251 497.661 247.493C500.559 238.515 504.207 232.669 513.173 235.605Z" fill="#35B9AB"/>
<path d="M542.973 215.816C554.86 215.816 564.496 206.18 564.496 194.293C564.496 182.406 554.86 172.77 542.973 172.77C531.086 172.77 521.449 182.406 521.449 194.293C521.449 206.18 531.086 215.816 542.973 215.816Z" fill="#FFC098"/>
<path d="M546.931 215.364C540.937 213.862 540.733 212.149 534.738 210.647C532.83 210.169 530.618 209.415 530.052 207.531C529.918 206.842 529.946 206.131 530.133 205.454C530.32 204.777 530.661 204.153 531.13 203.63C532.075 202.596 532.96 201.508 533.78 200.373C534.324 199.461 534.637 198.431 534.694 197.371C534.75 196.311 534.547 195.253 534.103 194.289C533.658 193.325 532.986 192.484 532.144 191.838C531.301 191.192 530.314 190.76 529.268 190.581C527.414 190.264 525.502 190.755 523.636 190.518C521.076 190.192 517.312 180.696 518.952 178.705C520.549 176.766 523.171 175.61 524.052 173.258C524.628 171.72 524.313 170 524.57 168.377C524.95 165.971 529.818 172.632 529.17 170.284C527.581 164.525 554.474 163.618 557.274 171.007C558.32 173.768 561.153 174.207 563.332 176.2C564.76 177.507 568.175 181.687 568.671 183.94C569.081 186.219 569.002 188.558 568.439 190.804C566.205 201.33 562.514 210.658 552.687 215.043" fill="#2F2E41"/>
<path d="M716.659 580.485L326.934 580.792C326.618 580.791 326.316 580.665 326.094 580.442C325.871 580.219 325.746 579.917 325.746 579.602C325.746 579.286 325.871 578.984 326.094 578.761C326.316 578.538 326.618 578.412 326.934 578.411L716.659 578.104C716.816 578.102 716.971 578.132 717.116 578.191C717.261 578.25 717.393 578.337 717.505 578.447C717.616 578.557 717.705 578.688 717.766 578.832C717.827 578.976 717.858 579.131 717.859 579.288C717.86 579.445 717.83 579.6 717.771 579.745C717.711 579.89 717.624 580.022 717.514 580.133C717.403 580.244 717.272 580.332 717.128 580.393C716.983 580.453 716.828 580.484 716.672 580.485H716.659Z" fill="#CACACA"/>
<path d="M141.911 275.158C138.515 271.763 134.476 269.079 130.03 267.264C125.584 265.45 120.821 264.541 116.019 264.59L115.636 264.591C109.087 264.594 102.655 262.857 96.9984 259.558L96.4097 259.215L96.8838 258.726C99.4507 256.071 101.594 253.036 103.239 249.729C101.887 250.986 100.239 251.881 98.4485 252.33C96.658 252.779 94.7829 252.769 92.9977 252.299C90.098 251.503 87.6179 249.618 86.076 247.037C82.5891 241.41 77.1212 233.388 78.6364 227.591C80.8196 219.238 110.436 232.79 90.7348 200.227C87.3015 194.552 98.42 189.487 98.3633 183.008L98.3614 182.546C98.3607 178.274 98.8828 174.018 99.9159 169.873L100.021 169.454L100.452 169.469C103.229 169.563 106.008 169.331 108.731 168.775C106.177 168.462 103.678 167.798 101.306 166.801L100.842 166.613L101 166.138C111.839 159.427 136.306 162.903 150.508 130.41C162.023 104.064 202.654 153.798 202.654 182.546C202.654 185.48 199.751 189.356 201.924 191.295C225.416 212.254 209.207 225.712 204.096 239.254C202.884 242.467 205.513 245.995 205.513 249.471C205.513 250.061 205.498 250.67 205.468 251.281L205.423 252.22L204.639 251.699C203.09 250.683 201.653 249.505 200.355 248.184C201.702 251.285 202.337 254.648 202.213 258.026C202.089 261.404 201.209 264.711 199.638 267.704C197.176 272.351 194.089 280.104 192.559 277.591C181.345 259.184 165.804 226.116 166.895 264.646C167.266 277.748 151.322 284.708 142.121 275.373C142.05 275.301 141.98 275.23 141.911 275.158Z" fill="#89D0CA"/>
<path d="M137.276 178.637C137.501 177.093 135.883 175.58 133.664 175.257C131.444 174.934 129.463 175.924 129.238 177.468C129.014 179.012 130.631 180.525 132.85 180.848C135.07 181.171 137.051 180.181 137.276 178.637Z" fill="white"/>
<path d="M163.702 176.059C163.927 174.515 162.31 173.002 160.09 172.679C157.871 172.356 155.889 173.346 155.665 174.89C155.44 176.434 157.057 177.947 159.277 178.27C161.496 178.593 163.477 177.603 163.702 176.059Z" fill="#3F3D56"/>
<path d="M130.04 157.245C130.265 155.701 128.648 154.187 126.428 153.864C124.209 153.542 122.227 154.531 122.003 156.075C121.778 157.619 123.395 159.133 125.615 159.456C127.834 159.779 129.816 158.789 130.04 157.245Z" fill="#FF983D"/>
<path d="M118.558 148.48C118.568 147.063 117.778 145.907 116.792 145.9C115.805 145.892 114.997 147.036 114.987 148.453C114.976 149.87 115.767 151.026 116.753 151.033C117.739 151.04 118.547 149.897 118.558 148.48Z" fill="#E6E6E6"/>
<path d="M114.663 132.158C114.674 130.74 113.883 129.585 112.897 129.578C111.911 129.57 111.103 130.713 111.093 132.131C111.082 133.548 111.873 134.703 112.859 134.711C113.845 134.718 114.653 133.575 114.663 132.158Z" fill="#3F3D56"/>
<path d="M144.944 160.884C144.955 159.467 144.165 158.312 143.178 158.304C142.192 158.297 141.384 159.44 141.374 160.857C141.363 162.275 142.154 163.43 143.14 163.437C144.126 163.445 144.934 162.302 144.944 160.884Z" fill="#E6E6E6"/>
<path d="M132.174 167.261C132.185 165.844 131.395 164.689 130.408 164.681C129.422 164.674 128.614 165.817 128.604 167.234C128.593 168.652 129.384 169.807 130.37 169.814C131.356 169.822 132.164 168.679 132.174 167.261Z" fill="#FF983D"/>
<path d="M149.951 179.044C149.962 177.627 149.171 176.472 148.185 176.464C147.199 176.457 146.391 177.6 146.38 179.017C146.369 180.435 147.16 181.59 148.146 181.597C149.132 181.605 149.94 180.462 149.951 179.044Z" fill="#3F3D56"/>
<path d="M389.212 288.469C388.738 255.793 377.748 262.236 365.166 279.59C363.439 281.972 360.549 274.35 358.087 269.703C356.516 266.71 355.636 263.403 355.512 260.025C355.388 256.646 356.023 253.283 357.37 250.183C356.071 251.504 354.635 252.682 353.085 253.697L352.302 254.219L352.257 253.279C352.227 252.668 352.212 252.06 352.212 251.47C352.212 247.994 354.841 244.466 353.629 241.253C348.518 227.711 332.309 214.252 355.801 193.294C357.974 191.355 355.071 187.478 355.071 184.545C355.071 155.797 410.464 103.84 407.217 132.409C401.892 179.265 434.295 169.952 456.725 168.137L456.882 168.612L456.419 168.799C454.047 169.796 451.548 170.461 448.994 170.774C451.717 171.329 454.496 171.562 457.273 171.468L457.704 171.453L457.809 171.871C458.842 176.017 459.364 180.273 459.363 184.545L459.361 185.007C459.352 188.252 460.026 191.462 461.34 194.429C462.655 197.396 464.58 200.052 466.99 202.225C470.796 205.696 473.838 209.922 475.921 214.633C478.004 219.345 479.083 224.438 479.088 229.59C479.088 235.684 474.946 243.684 471.471 249.322C470.59 250.758 469.396 251.977 467.977 252.885C466.559 253.794 464.953 254.369 463.28 254.569C461.696 254.769 460.087 254.618 458.567 254.127C457.047 253.636 455.654 252.817 454.486 251.728C456.13 255.035 458.274 258.069 460.841 260.725L461.315 261.214L460.726 261.557C455.069 264.855 448.637 266.592 442.089 266.59L441.705 266.589C436.903 266.539 432.14 267.448 427.694 269.263C423.249 271.078 419.209 273.761 415.814 277.157C412.356 280.718 408.222 283.554 403.654 285.496C399.086 287.439 394.176 288.45 389.212 288.469Z" fill="#89D0CA"/>
<path d="M374.842 266.553C371.617 279.162 355.594 282.871 346.776 273.298C337.296 263.008 332.556 271.014 332.384 293.869C332.361 296.812 325.756 291.667 321.289 288.893C318.424 287.098 315.998 284.684 314.19 281.828C312.381 278.972 311.236 275.747 310.839 272.39C310.382 274.185 309.735 275.926 308.907 277.584L308.493 278.428L307.981 277.64C307.647 277.127 307.328 276.608 307.031 276.099C305.28 273.096 305.775 268.724 303.11 266.559C291.875 257.433 271.093 253.968 280.834 224.031C281.736 221.261 278.382 218.228 275.798 216.84C233.856 194.317 261.18 129.433 294.594 145.537C326.538 160.933 342.614 151.133 355.358 151.472L355.733 151.803L355.427 152.199C353.88 154.255 352.056 156.087 350.007 157.644C352.639 156.752 355.157 155.554 357.509 154.074L357.874 153.844L358.175 154.153C361.155 157.214 363.75 160.628 365.9 164.319L366.131 164.719C367.757 167.528 369.957 169.962 372.586 171.863C375.216 173.764 378.217 175.09 381.393 175.753C386.43 176.835 391.185 178.954 395.358 181.975C399.53 184.997 403.027 188.854 405.626 193.302C408.629 198.453 409.124 207.177 408.992 213.752C408.982 216.831 407.755 219.781 405.58 221.959C404.275 223.238 402.67 224.169 400.913 224.668C399.156 225.167 397.302 225.219 395.519 224.818C398.606 226.846 401.986 228.389 405.541 229.39L406.196 229.574L405.86 230.167C402.634 235.865 397.952 240.605 392.293 243.901L391.961 244.093C387.788 246.468 384.131 249.652 381.204 253.459C378.277 257.266 376.139 261.618 374.915 266.261C374.891 266.359 374.866 266.456 374.842 266.553Z" fill="#89D0CA"/>
<path d="M137.923 247.523C138.048 247.446 138.128 247.332 138.106 247.255C136.902 243.803 135.011 240.632 132.547 237.933C128.688 233.62 121.571 228.364 109.582 227.818C109.51 227.822 109.439 227.841 109.375 227.875C109.31 227.909 109.254 227.956 109.209 228.013C109.124 228.126 109.23 228.115 109.274 228.227C112.266 235.755 117.204 242.365 129.679 239.858C135.787 238.631 137.565 247.482 137.578 247.527C137.602 247.612 137.74 247.619 137.886 247.544C137.899 247.537 137.911 247.53 137.923 247.523Z" fill="#F2F2F2"/>
<path d="M318.923 252.523C319.048 252.446 319.128 252.332 319.106 252.255C317.902 248.803 316.011 245.632 313.547 242.933C309.688 238.62 302.571 233.364 290.582 232.818C290.51 232.822 290.439 232.841 290.375 232.875C290.31 232.909 290.254 232.956 290.209 233.013C290.124 233.126 290.366 233.148 290.274 233.227C275.638 245.858 294.285 246.302 310.679 244.858C316.886 244.312 318.565 252.482 318.578 252.527C318.602 252.612 318.74 252.619 318.886 252.544C318.899 252.537 318.911 252.53 318.923 252.523Z" fill="#89D0CA"/>
<path d="M170.546 170.371C170.69 170.398 170.797 170.249 170.862 170.296C173.854 172.46 178.273 169.864 173.031 159.662C170.386 154.514 171.363 145.196 162.868 136.718C162.812 136.672 162.747 136.639 162.677 136.62C162.606 136.602 162.533 136.599 162.462 136.611C162.323 136.637 162.28 136.728 162.366 136.813C170.787 145.218 169.667 153.407 169.615 159.153C169.588 162.827 169.813 166.499 170.288 170.142C170.249 170.221 170.346 170.319 170.505 170.361C170.519 170.365 170.532 170.368 170.546 170.371Z" fill="#F2F2F2"/>
<path d="M307.923 200.522C308.048 200.445 308.128 200.331 308.105 200.254C306.582 199.172 305.301 197.784 304.344 196.179C303.386 194.574 302.775 192.787 302.547 190.932C299.484 162.467 291.87 172.289 279.582 180.817C279.482 180.886 279.294 180.899 279.209 181.012C279.124 181.125 279.154 181.221 279.274 181.226C291.16 181.767 295.847 188.575 299.679 192.857C302.134 195.591 304.773 198.153 307.578 200.527C307.602 200.611 307.74 200.618 307.886 200.543C307.898 200.536 307.911 200.529 307.923 200.522Z" fill="#F2F2F2"/>
<path d="M437.143 239.521C437.018 239.445 436.938 239.33 436.961 239.253C439.906 236.943 441.887 233.621 442.519 229.932C449.24 189.369 454.926 202.231 465.484 219.817C465.546 219.921 465.772 219.899 465.857 220.011C465.942 220.124 465.912 220.22 465.792 220.226C453.906 220.766 449.219 227.574 445.387 231.857C442.932 234.591 440.293 237.153 437.488 239.526C437.464 239.61 437.326 239.618 437.18 239.542C437.167 239.536 437.155 239.529 437.143 239.521Z" fill="white"/>
<path d="M175.143 231.522C175.018 231.445 174.938 231.331 174.961 231.254C174.974 231.208 182.552 227.86 180.519 221.932C173.147 200.439 188.138 207.227 203.484 211.818C203.625 211.844 203.755 211.912 203.857 212.012C203.942 212.125 203.912 212.221 203.792 212.226C191.906 212.767 187.219 219.575 183.387 223.858C180.932 226.591 178.293 229.154 175.488 231.527C175.464 231.611 175.326 231.618 175.18 231.543C175.167 231.536 175.155 231.529 175.143 231.522Z" fill="#F2F2F2"/>
<path d="M362.143 221.522C362.018 221.446 361.938 221.331 361.961 221.254C364.167 218.372 366.032 215.244 367.519 211.932C381.611 180.887 384.858 185.741 390.484 201.818C390.524 201.932 390.772 201.899 390.857 202.012C390.942 202.125 390.912 202.221 390.792 202.227C378.906 202.767 374.219 209.575 370.387 213.858C367.932 216.592 365.293 219.154 362.488 221.527C362.464 221.611 362.326 221.618 362.18 221.543C362.167 221.537 362.155 221.53 362.143 221.522Z" fill="#F2F2F2"/>
<path d="M509.997 236.691C509.997 236.691 495.383 251.969 495.677 272.004C496.27 276.133 498.565 279.417 501.187 274.89C503.809 270.362 500.55 269.38 504.581 262.043C508.612 254.706 524.02 242.662 509.997 236.691Z" fill="#47CABC"/>
<path d="M513.626 318.582C513.626 318.582 504.879 324.486 511.44 335.201C516.25 341.106 538.118 330.828 545.335 323.611C552.551 316.395 553.426 308.304 559.986 295.839C566.547 283.374 572.232 273.971 566.109 277.907C559.986 281.844 557.362 299.775 548.615 303.493C539.868 307.21 533.745 314.645 527.184 318.8C520.624 322.955 521.717 312.459 513.626 318.582Z" fill="#47CABC"/>
</g>
<defs>
<clipPath id="clip0_470_1236">
<rect width="699.856" height="568.792" fill="white" transform="translate(17.9998 12)"/>
</clipPath>
</defs>
</svg>
