<svg width="431" height="343" viewBox="0 0 431 343" fill="none" xmlns="http://www.w3.org/2000/svg">
<path d="M429.765 29.5708L2.61945 26.6483C3.24741 23.0499 4.44896 19.6498 6.1168 16.5742C11.4439 6.74427 21.5189 0.13099 33.0105 0.209614L399.738 2.71872C411.223 2.7973 421.213 9.54786 426.398 19.4497C428.024 22.5478 429.186 25.9641 429.765 29.5708Z" fill="#F2F2F2"/>
<path d="M315.129 159.958L115.455 158.592C113.599 158.579 112.103 156.557 112.12 154.084C112.137 151.611 113.66 149.61 115.516 149.623L315.19 150.989C317.046 151.001 318.542 153.023 318.525 155.496C318.508 157.969 316.985 159.97 315.129 159.958Z" fill="#E6E6E6"/>
<path d="M429.765 29.5711C429.186 25.9644 428.024 22.5481 426.398 19.45C421.213 9.54819 411.223 2.79762 399.738 2.71905L33.0105 0.209938C21.519 0.131315 11.4439 6.74459 6.1168 16.5745C4.44896 19.6501 3.24741 23.0502 2.61946 26.6486C2.29457 28.4851 2.11835 30.375 2.10511 32.3108L0.221054 307.681C0.0991423 325.5 13.7628 340.086 30.6843 340.202L397.412 342.711C400.918 342.735 404.301 342.13 407.454 341.001C419.493 336.703 428.221 324.729 428.317 310.61L430.201 35.2398C430.215 33.3115 430.064 31.4119 429.765 29.5711ZM426.898 310.6C426.791 326.192 415.701 339.009 401.413 340.96C400.106 341.137 398.778 341.226 397.422 341.216L74.2828 339.005C34.0447 338.73 1.66482 304.156 1.95472 261.785L3.52469 32.3205C3.53793 30.3847 3.72121 28.4949 4.06031 26.6585C4.72399 23.0304 5.98939 19.6382 7.74932 16.5857C12.9144 7.60676 22.3108 1.63163 33.0002 1.70477L399.728 4.21388C410.417 4.28701 419.731 10.3902 424.773 19.4389C426.491 22.5152 427.71 25.9244 428.324 29.5613C428.638 31.4021 428.795 33.2943 428.782 35.23L426.898 310.6Z" fill="#3C3C3C"/>
<path d="M210.992 232.121L162.97 231.793C160.04 231.773 157.672 229.245 157.693 226.159L157.728 221.102C157.749 218.016 160.151 215.522 163.081 215.542L211.103 215.871C214.034 215.891 216.401 218.417 216.38 221.503L216.345 226.561C216.324 229.647 213.922 232.141 210.992 232.121Z" fill="#FF983D"/>
<path d="M396.668 68.1085L348.647 67.78C345.716 67.7599 343.349 65.2328 343.37 62.1468L343.405 57.0893C343.426 54.0033 345.827 51.5095 348.758 51.5295L396.779 51.8581C399.71 51.8781 402.077 54.4046 402.056 57.4906L402.022 62.548C402.001 65.6341 399.599 68.1286 396.668 68.1085Z" fill="#FF983D"/>
<path d="M282.229 232.982L234.208 232.654C231.082 232.632 228.556 229.936 228.579 226.644L228.613 221.587C228.636 218.295 231.198 215.635 234.324 215.656L282.346 215.985C285.472 216.006 287.997 218.701 287.975 221.993L287.94 227.051C287.918 230.342 285.356 233.004 282.229 232.982ZM234.314 217.151C231.971 217.135 230.05 219.129 230.033 221.597L229.998 226.654C229.982 229.122 231.875 231.143 234.218 231.159L282.24 231.488C284.583 231.504 286.504 229.509 286.521 227.041L286.555 221.983C286.572 219.516 284.679 217.495 282.336 217.479L234.314 217.151Z" fill="#FF983D"/>
<path d="M341.793 136.969L89.1078 135.24C86.7594 135.224 84.8628 133.2 84.8797 130.727C84.8966 128.254 86.8207 126.255 89.1691 126.271L341.855 128C344.203 128.016 346.1 130.041 346.083 132.514C346.066 134.987 344.142 136.985 341.793 136.969Z" fill="#E6E6E6"/>
<path d="M73.5144 62.2577L41.5738 62.0391C39.2254 62.0231 37.3289 59.9984 37.3458 57.5255C37.3627 55.0526 39.2868 53.0541 41.6352 53.0702L73.5758 53.2887C75.9242 53.3048 77.8208 55.3294 77.8039 57.8023C77.7869 60.2752 75.8629 62.2737 73.5144 62.2577Z" fill="#E6E6E6"/>
<path d="M264.448 63.5633L232.507 63.3448C230.159 63.3287 228.262 61.3041 228.279 58.8312C228.296 56.3583 230.22 54.3597 232.569 54.3758L264.509 54.5944C266.858 54.6104 268.754 56.6351 268.737 59.108C268.721 61.5809 266.796 63.5794 264.448 63.5633Z" fill="#E6E6E6"/>
<path d="M324.78 63.9764L292.84 63.7579C290.491 63.7418 288.595 61.7172 288.612 59.2443C288.629 56.7714 290.553 54.7728 292.901 54.7889L324.842 55.0074C327.19 55.0235 329.087 57.0482 329.07 59.5211C329.053 61.994 327.129 63.9925 324.78 63.9764Z" fill="#E6E6E6"/>
<path d="M285.403 182.925L144.864 181.963C142.516 181.947 140.619 179.922 140.636 177.449C140.653 174.976 142.577 172.978 144.926 172.994L285.464 173.956C287.813 173.972 289.709 175.996 289.692 178.469C289.675 180.942 287.751 182.941 285.403 182.925Z" fill="#E6E6E6"/>
<path d="M290.856 281.07L138.069 280.025C136.649 280.015 135.502 278.791 135.512 277.296C135.523 275.8 136.686 274.592 138.106 274.602L290.893 275.647C292.313 275.657 293.459 276.881 293.449 278.376C293.439 279.871 292.276 281.08 290.856 281.07Z" fill="#E6E6E6"/>
<path d="M294.078 17.988L141.291 16.9427C139.871 16.933 138.724 15.7088 138.735 14.2135C138.745 12.7183 139.908 11.5099 141.328 11.5196L294.115 12.5649C295.535 12.5746 296.682 13.7989 296.671 15.2941C296.661 16.7893 295.498 17.9978 294.078 17.988Z" fill="white"/>
<g clip-path="url(#clip0_465_3093)">
<path d="M210.986 103.355C211.022 104.795 209.87 105.947 208.431 105.911C207.027 105.911 205.875 104.759 205.875 103.355C205.875 96.3363 211.58 90.6311 218.599 90.6311L231.341 90.6311C238.36 90.6311 244.066 96.3363 244.066 103.355C244.066 110.374 238.36 116.08 231.341 116.08L225.978 116.08C227.472 114.622 228.714 112.912 229.614 111.004L231.323 110.986C235.553 111.004 238.972 107.585 238.954 103.355C238.972 99.1259 235.553 95.7064 231.323 95.7244L218.617 95.7244C214.388 95.7064 210.968 99.1259 210.986 103.355ZM223.692 100.8C225.096 100.8 226.248 101.952 226.248 103.355C226.248 110.374 220.543 116.08 213.524 116.08L200.782 116.08C193.763 116.08 188.057 110.374 188.057 103.355C188.057 96.3363 193.763 90.6311 200.782 90.6311L206.145 90.6311C204.651 92.0889 203.409 93.7986 202.491 95.7244L200.8 95.7244C196.57 95.7064 193.151 99.1259 193.169 103.355C193.151 107.585 196.57 111.004 200.8 110.986L213.506 110.986C217.735 111.004 221.155 107.585 221.137 103.355C221.101 101.916 222.253 100.764 223.692 100.8Z" fill="#FF983D"/>
</g>
<defs>
<clipPath id="clip0_465_3093">
<rect width="50" height="49.8264" fill="white" transform="translate(215.939 68) rotate(45)"/>
</clipPath>
</defs>
</svg>
