<svg width="37" height="17" viewBox="0 0 37 17" fill="none" xmlns="http://www.w3.org/2000/svg">
<path d="M14.977 8.13312C14.9999 9.0512 14.2655 9.78565 13.3474 9.7627C12.4523 9.7627 11.7178 9.02825 11.7178 8.13312C11.7178 3.65752 15.3557 0.0196635 19.8313 0.0196639L27.9562 0.0196622C32.4318 0.0196623 36.0697 3.65752 36.0697 8.13312C36.0697 12.6087 32.4318 16.2466 27.9562 16.2466L24.5364 16.2466C25.4889 15.317 26.2808 14.2268 26.8545 13.0104L27.9448 12.9989C30.6416 13.0104 32.822 10.83 32.8105 8.13312C32.822 5.43629 30.6416 3.25587 27.9448 3.26734L19.8428 3.26734C17.1459 3.25587 14.9655 5.43629 14.977 8.13312ZM23.079 6.50355C23.9741 6.50355 24.7086 7.238 24.7086 8.13312C24.7086 12.6087 21.0707 16.2466 16.5951 16.2466L8.47016 16.2466C3.99455 16.2466 0.356694 12.6087 0.356694 8.13312C0.356694 3.65752 3.99456 0.0196623 8.47016 0.0196622L11.89 0.0196632C10.9375 0.949211 10.1456 2.03942 9.56037 3.26734H8.48163C5.7848 3.25587 3.60437 5.43629 3.61585 8.13312C3.60437 10.83 5.78479 13.0104 8.48163 12.9989L16.5836 12.9989C19.2805 13.0104 21.4609 10.83 21.4494 8.13312C21.4264 7.21505 22.1609 6.48059 23.079 6.50355Z" fill="#FEFEFE"/>
</svg>
