<svg width="45" height="21" viewBox="0 0 45 21" fill="none" xmlns="http://www.w3.org/2000/svg">
<path d="M18.8183 10.2518C18.8466 11.3841 17.9407 12.2899 16.8084 12.2616C15.7045 12.2616 14.7986 11.3558 14.7986 10.2518C14.7986 4.73191 19.2853 0.245216 24.8052 0.245215L34.826 0.245214C40.3459 0.245215 44.8326 4.73191 44.8326 10.2518C44.8326 15.7717 40.3459 20.2584 34.826 20.2584H30.6082C31.783 19.112 32.7596 17.7674 33.4672 16.2671L34.8118 16.253C38.1379 16.2671 40.8271 13.5779 40.813 10.2518C40.8271 6.92572 38.1379 4.23653 34.8118 4.25069L24.8194 4.25069C21.4933 4.23653 18.8041 6.92572 18.8183 10.2518ZM28.8107 8.24201C29.9147 8.24201 30.8205 9.14784 30.8205 10.2518C30.8205 15.7717 26.3338 20.2584 20.8139 20.2584L10.7932 20.2584C5.27325 20.2584 0.786551 15.7717 0.78655 10.2518C0.78655 4.73191 5.27325 0.245215 10.7932 0.245214L15.0109 0.245216C13.8362 1.39166 12.8596 2.73625 12.1377 4.25069L10.8073 4.25069C7.48121 4.23653 4.79202 6.92572 4.80618 10.2518C4.79202 13.5779 7.48121 16.2671 10.8073 16.253L20.7998 16.2529C24.1259 16.2671 26.815 13.5779 26.8009 10.2518C26.7726 9.11953 27.6784 8.2137 28.8107 8.24201Z" fill="#928D8D"/>
</svg>
