<svg width="41" height="41" viewBox="0 0 41 41" fill="none" xmlns="http://www.w3.org/2000/svg">
<path d="M20.8096 0.5C9.76957 0.5 0.80957 9.46 0.80957 20.5C0.80957 31.54 9.76957 40.5 20.8096 40.5C31.8496 40.5 40.8096 31.54 40.8096 20.5C40.8096 9.46 31.8496 0.5 20.8096 0.5ZM20.8096 6.5C24.1296 6.5 26.8096 9.18 26.8096 12.5C26.8096 15.82 24.1296 18.5 20.8096 18.5C17.4896 18.5 14.8096 15.82 14.8096 12.5C14.8096 9.18 17.4896 6.5 20.8096 6.5ZM20.8096 34.9C15.8096 34.9 11.3896 32.34 8.80957 28.46C8.86957 24.48 16.8096 22.3 20.8096 22.3C24.7896 22.3 32.7496 24.48 32.8096 28.46C30.2296 32.34 25.8096 34.9 20.8096 34.9Z" fill="#434343"/>
</svg>
